<?xml version="1.0" encoding="UTF-8"?>
<svg xmlns="http://www.w3.org/2000/svg" xmlns:xlink="http://www.w3.org/1999/xlink" width="751.9pt" height="1056.8pt" viewBox="0 0 751.9 1056.8" version="1.1">
<defs>
<clipPath id="clip1">
  <path d="M 0 0 L 751.898438 0 L 751.898438 1056 L 0 1056 Z M 0 0 "/>
</clipPath>
</defs>
<g id="surface1">
<g clip-path="url(#clip1)" clip-rule="nonzero">
<path style=" stroke:none;fill-rule:evenodd;fill:rgb(92.96875%,10.594177%,14.109802%);fill-opacity:1;" d="M 374.410156 -0.0507813 C 397.484375 0.289063 420.539063 3.898438 442.53125 10.929688 C 446.332031 16.660156 447.941406 23.589844 448.492188 30.371094 C 449.429688 44.390625 446.136719 58.289063 441.667969 71.480469 C 437.507813 83.570313 432.113281 95.203125 426.074219 106.453125 C 414.195313 128.46875 399.832031 149.054688 384.144531 168.511719 C 367.675781 188.863281 349.652344 207.945313 330.441406 225.722656 C 312.226563 242.507813 292.90625 258.136719 272.339844 271.96875 C 261.683594 279.128906 250.691406 285.8125 239.308594 291.761719 C 227.421875 297.960938 215.105469 303.425781 202.28125 307.382813 C 194.203125 309.859375 185.910156 311.738281 177.476563 312.433594 C 168.179688 313.183594 158.441406 312.488281 149.949219 308.328125 C 148.921875 307.757813 147.773438 307.328125 146.90625 306.523438 C 142.675781 293.378906 139.746094 279.816406 137.925781 266.132813 C 136.757813 256.957031 136.023438 247.722656 135.984375 238.476563 C 140.902344 243.914063 148.140625 246.644531 155.304688 247.355469 C 163.363281 248.207031 171.492188 246.996094 179.316406 245.082031 C 192.398438 241.789063 204.820313 236.324219 216.71875 230.039063 C 240.085938 217.53125 261.511719 201.652344 281.375 184.164063 C 299.304688 168.316406 315.984375 151.039063 331.101563 132.472656 C 339.78125 121.769531 347.949219 110.636719 355.339844 98.996094 C 362.011719 88.480469 368.09375 77.570313 373.089844 66.160156 C 376.164063 59.140625 378.824219 51.910156 380.769531 44.480469 C 382.5625 37.539063 383.753906 30.390625 383.582031 23.210938 C 383.433594 17.019531 382.152344 10.710938 378.886719 5.390625 C 377.671875 3.359375 376.113281 1.570313 374.410156 -0.0507813 Z M 295.984375 12.261719 C 297.535156 11.71875 299.1875 12.238281 300.761719 12.460938 C 305.601563 13.300781 310.238281 15.941406 312.910156 20.148438 C 316.046875 24.960938 316.554688 30.949219 316.136719 36.539063 C 315.53125 43.800781 313.34375 50.820313 310.667969 57.558594 C 305.726563 69.640625 298.984375 80.898438 291.460938 91.542969 C 284.070313 101.933594 275.855469 111.722656 267.066406 120.960938 C 258.367188 130.09375 249.085938 138.679688 239.257813 146.589844 C 229.917969 154.085938 220.074219 160.984375 209.632813 166.863281 C 203.269531 170.433594 196.675781 173.625 189.8125 176.109375 C 182.925781 178.550781 175.691406 180.402344 168.335938 180.285156 C 163.113281 180.152344 157.617188 178.777344 153.761719 175.054688 C 149.925781 171.492188 148.234375 166.183594 147.976563 161.070313 C 148.003906 160.78125 148.066406 160.5 148.167969 160.234375 C 154.90625 140.164063 164.375 121.007813 176.257813 103.480469 C 196.007813 74.339844 222.316406 49.660156 252.734375 31.921875 C 266.433594 23.929688 280.957031 17.339844 295.984375 12.261719 Z M 241.578125 50.511719 C 236.890625 51.371094 232.566406 53.539063 228.472656 55.910156 C 221.589844 59.980469 215.347656 65.070313 209.59375 70.609375 C 201.808594 78.210938 194.710938 86.703125 189.734375 96.429688 C 187.875 100.347656 186.089844 104.546875 186.289063 108.96875 C 186.34375 111.199219 187.503906 113.503906 189.613281 114.433594 C 192.640625 115.796875 196.089844 114.996094 199.132813 114.082031 C 206.742188 111.511719 213.472656 106.914063 219.71875 101.949219 C 225.402344 97.375 230.648438 92.246094 235.433594 86.734375 C 240.082031 81.328125 244.324219 75.53125 247.558594 69.171875 C 249.125 65.980469 250.496094 62.648438 251.007813 59.109375 C 251.292969 56.699219 251.175781 53.929688 249.367188 52.101563 C 247.347656 50.089844 244.210938 50.03125 241.578125 50.511719 Z M 502.796875 40.019531 C 522.988281 53.570313 540.996094 70.328125 556.09375 89.386719 C 557.117188 90.839844 557.492188 92.636719 558.085938 94.296875 C 560.511719 102.324219 560.792969 110.839844 560.113281 119.15625 C 558.875 133.152344 554.898438 146.753906 549.902344 159.839844 C 539.769531 185.90625 525.441406 210.132813 509.503906 233.035156 C 508.855469 217.179688 508.5 201.308594 507.902344 185.453125 C 490.195313 184.804688 472.488281 184.320313 454.785156 183.703125 C 470.050781 162.0625 483.816406 139.210938 494.046875 114.738281 C 499.632813 101.167969 504.195313 87.0625 506.023438 72.460938 C 507.316406 61.621094 507.0625 50.230469 502.796875 40.019531 Z M 595.039063 161.765625 C 600.550781 178.582031 604.164063 196.015625 605.785156 213.636719 C 605.882813 215.800781 606.476563 218.007813 605.871094 220.15625 C 603.875 229.640625 600.789063 238.875 597.113281 247.847656 C 589.375 266.605469 579.167969 284.257813 567.863281 301.074219 C 545.746094 333.6875 519.273438 363.21875 490.234375 389.792969 C 476.167969 402.585938 461.425781 414.648438 445.953125 425.699219 C 426.242188 439.71875 405.371094 452.324219 382.9375 461.5 C 373.742188 465.191406 364.28125 468.355469 354.53125 470.171875 C 335.269531 468.898438 316.179688 465.09375 297.835938 459.085938 C 311.734375 458.144531 325.261719 454.320313 338.246094 449.433594 C 351.160156 444.539063 363.59375 438.445313 375.636719 431.707031 C 398.761719 418.707031 420.457031 403.269531 440.96875 386.476563 C 459.46875 371.289063 477.003906 354.933594 493.53125 337.625 C 507.691406 322.789063 521.113281 307.234375 533.582031 290.949219 C 546.308594 274.296875 558.078125 256.886719 568.277344 238.570313 C 577.894531 221.171875 586.296875 202.933594 591.367188 183.648438 C 593.226563 176.484375 594.539063 169.160156 595.039063 161.765625 Z M 369.496094 207.367188 C 408.570313 208.445313 447.640625 209.796875 486.714844 210.878906 C 486.234375 246.035156 485.582031 281.199219 485.054688 316.355469 C 484.9375 320.308594 484.980469 324.273438 484.820313 328.226563 C 477.140625 320.171875 469.460938 312.113281 461.761719 304.074219 C 462.066406 282.027344 462.421875 259.980469 462.828125 237.933594 C 447.613281 237.425781 432.398438 236.996094 417.1875 236.519531 C 410.363281 236.261719 403.515625 236.191406 396.707031 235.816406 C 387.574219 226.410156 378.574219 216.84375 369.496094 207.367188 Z M 323.730469 254.992188 C 362.84375 256.191406 401.957031 257.386719 441.070313 258.582031 C 440.382813 297.6875 439.761719 336.792969 439.171875 375.902344 C 428.761719 365.082031 418.421875 354.191406 408.058594 343.324219 C 388.78125 359.636719 368.464844 374.777344 346.957031 388.035156 C 334.355469 395.769531 321.355469 402.882813 307.851563 408.917969 C 295.980469 414.203125 283.714844 418.710938 271.027344 421.605469 C 263.027344 423.414063 254.839844 424.546875 246.621094 424.472656 C 239.523438 424.285156 232.265625 423.359375 225.753906 420.398438 C 206.507813 405.292969 189.675781 387.121094 175.988281 366.84375 C 183.355469 369.882813 191.40625 370.90625 199.335938 370.734375 C 212.9375 370.355469 226.269531 366.984375 239.066406 362.539063 C 251.949219 358.007813 264.367188 352.25 276.398438 345.816406 C 305.257813 330.273438 331.949219 310.960938 356.921875 289.792969 C 345.902344 278.144531 334.800781 266.582031 323.730469 254.992188 Z M 529.847656 386.320313 C 555.746094 359.847656 579.195313 330.800781 598.082031 298.890625 C 589.074219 331.402344 572.859375 361.886719 551 387.589844 C 539.777344 400.800781 527.117188 412.796875 513.296875 423.261719 C 489.921875 440.976563 463.1875 454.238281 434.933594 462.085938 C 469.875 441.359375 501.402344 415.234375 529.847656 386.320313 Z M 36.292969 481.28125 C 51.40625 480.96875 66.6875 480.503906 81.601563 483.457031 C 94.21875 485.863281 106.671875 490.574219 116.679688 498.789063 C 125.226563 505.691406 131.625 515.042969 135.554688 525.261719 C 138.589844 533.042969 140.355469 541.269531 141.28125 549.558594 C 142.75 563.925781 142.507813 578.664063 138.777344 592.691406 C 135.648438 604.570313 129.757813 615.824219 121.175781 624.671875 C 109.160156 637.171875 92.476563 644.648438 75.382813 646.761719 C 72.125 646.890625 68.835938 646.710938 65.636719 646.0625 C 62.21875 645.371094 58.828125 643.808594 56.613281 641.035156 C 54.039063 637.878906 53.28125 633.6875 53.25 629.722656 C 53.21875 628.363281 54.242188 627.289063 55.3125 626.609375 C 56.71875 625.695313 58.425781 625.414063 60.078125 625.441406 C 67.449219 625.378906 74.785156 623.074219 80.882813 618.929688 C 89.15625 613.367188 94.78125 604.613281 98.035156 595.324219 C 100.921875 587.113281 102.214844 578.429688 102.621094 569.761719 C 102.894531 562.578125 102.773438 555.335938 101.511719 548.238281 C 100.441406 542.058594 98.554688 535.960938 95.4375 530.496094 C 92.6875 525.628906 88.882813 521.335938 84.289063 518.132813 C 79.414063 514.71875 73.71875 512.585938 67.882813 511.519531 C 60.898438 510.171875 53.757813 510.679688 46.699219 510.660156 C 43.457031 510.757813 40.210938 510.871094 37.007813 511.402344 C 37.015625 564.441406 37.011719 617.480469 37.011719 670.519531 C 36.941406 690.195313 37.109375 709.863281 37.335938 729.53125 C 37.234375 734.417969 37.734375 739.335938 36.960938 744.195313 C 36.464844 747.554688 35.289063 750.859375 33.257813 753.605469 C 31.542969 755.554688 28.980469 756.507813 26.488281 756.980469 C 22.515625 757.695313 18.457031 757.695313 14.429688 757.675781 C 9.777344 757.675781 5.125 757.675781 0.46875 757.675781 C 0.960938 732.972656 1.238281 708.269531 1.300781 683.558594 C 1.351563 666.496094 1.164063 649.4375 1.136719 632.375 C 1.199219 628.574219 1.011719 624.773438 1.058594 620.972656 C 1.097656 611.726563 0.90625 602.484375 0.980469 593.234375 C 0.800781 585.203125 0.96875 577.15625 0.8125 569.121094 C 0.859375 559.546875 0.664063 549.972656 0.734375 540.398438 C 0.578125 534.855469 0.679688 529.308594 0.652344 523.761719 C 0.476563 515.726563 0.65625 507.683594 0.484375 499.648438 C 0.636719 494.785156 0.0546875 489.941406 0.113281 485.085938 C 3.132813 483.527344 6.480469 482.738281 9.84375 482.382813 C 18.648438 481.898438 27.46875 481.4375 36.292969 481.28125 Z M 521.9375 517.003906 C 528.351563 513.472656 535.75 512.191406 542.984375 511.769531 C 542.546875 529.359375 542.125 546.941406 542.152344 564.535156 C 559.734375 564.542969 577.324219 564.535156 594.910156 564.539063 C 594.605469 569.128906 594.28125 573.730469 593.539063 578.273438 C 593.015625 581.246094 592.421875 584.292969 590.90625 586.945313 C 589.832031 588.847656 587.957031 590.285156 585.800781 590.695313 C 581.910156 591.332031 577.964844 591.601563 574.027344 591.65625 C 563.410156 592.050781 552.789063 592.03125 542.167969 592.011719 C 541.726563 608.824219 541.40625 625.648438 541.335938 642.472656 C 541.246094 659.4375 541.609375 676.402344 541.742188 693.363281 C 541.710938 696.757813 542.160156 700.136719 542.484375 703.511719 C 543.210938 709.726563 544.15625 716.007813 546.519531 721.839844 C 547.691406 724.597656 549.191406 727.289063 551.386719 729.378906 C 554.070313 732.109375 557.863281 733.542969 561.644531 733.796875 C 565.226563 734.136719 568.796875 733.421875 572.273438 732.640625 C 577.570313 731.386719 582.816406 729.824219 587.839844 727.714844 C 589.164063 727.160156 590.445313 726.492188 591.625 725.667969 C 592.574219 730.925781 592.554688 736.289063 592.355469 741.609375 C 592.195313 743.960938 592.351563 746.464844 591.160156 748.597656 C 589.421875 751.867188 586.449219 754.378906 583.125 755.941406 C 577.101563 758.839844 570.519531 760.355469 563.933594 761.304688 C 557.386719 762.15625 550.714844 762.550781 544.148438 761.691406 C 537.550781 760.8125 531.078125 758.40625 525.816406 754.273438 C 521.246094 750.746094 517.695313 746.042969 515.054688 740.941406 C 512.203125 735.414063 510.351563 729.425781 509.082031 723.355469 C 505.832031 707.914063 506.511719 692.058594 506.445313 676.386719 C 506.441406 648.398438 506.445313 620.40625 506.441406 592.421875 C 498.15625 592.316406 489.464844 592.074219 481.894531 588.300781 C 481.886719 585.707031 481.941406 583.109375 482.070313 580.523438 C 482.207031 578.96875 482.28125 577.214844 483.425781 576.019531 C 484.886719 574.527344 486.425781 573.042969 488.3125 572.101563 C 495.160156 568.5 503.074219 567.902344 510.160156 564.933594 C 510.824219 552.644531 511.480469 540.359375 512.222656 528.082031 C 513.804688 523.269531 517.574219 519.4375 521.9375 517.003906 Z M 233.707031 559.527344 C 246.644531 558.601563 259.929688 559.609375 272.1875 564.085938 C 281.195313 567.359375 289.472656 572.679688 296.039063 579.679688 C 302.90625 586.921875 307.914063 595.765625 311.402344 605.082031 C 315.308594 615.492188 317.441406 626.492188 318.59375 637.53125 C 319.582031 647.355469 319.828125 657.246094 319.472656 667.105469 C 318.796875 683.375 316.109375 699.746094 309.820313 714.84375 C 304.933594 726.585938 297.660156 737.484375 287.890625 745.722656 C 278.675781 753.558594 267.3125 758.738281 255.421875 760.871094 C 246.839844 762.449219 238.042969 762.445313 229.378906 761.640625 C 216.117188 760.394531 202.828125 756.292969 192.152344 748.117188 C 185.621094 743.121094 180.183594 736.761719 176.042969 729.667969 C 170.988281 721.042969 167.707031 711.492188 165.542969 701.769531 C 162.988281 690.222656 161.949219 678.390625 161.699219 666.585938 C 161.429688 652.707031 162.265625 638.734375 165.183594 625.140625 C 167.628906 613.796875 171.554688 602.671875 177.695313 592.78125 C 183.199219 583.882813 190.585938 576.097656 199.453125 570.503906 C 209.6875 563.976563 221.664063 560.5 233.707031 559.527344 Z M 236.359375 586.964844 C 227.964844 587.941406 220.324219 592.691406 215.09375 599.234375 C 208.261719 607.671875 204.695313 618.230469 202.542969 628.738281 C 200.253906 640.113281 199.652344 651.761719 199.820313 663.347656 C 199.957031 674.894531 200.847656 686.492188 203.414063 697.777344 C 205.585938 707.085938 208.972656 716.40625 215.210938 723.792969 C 219.808594 729.308594 226.265625 733.257813 233.316406 734.679688 C 241.738281 736.4375 250.988281 735.503906 258.351563 730.816406 C 264.679688 726.867188 269.347656 720.707031 272.550781 714.050781 C 276.277344 706.4375 278.382813 698.140625 279.777344 689.8125 C 281.472656 679.347656 281.972656 668.722656 281.921875 658.128906 C 281.765625 646.660156 281.035156 635.132813 278.550781 623.90625 C 276.53125 614.9375 273.402344 605.941406 267.574219 598.695313 C 264 594.21875 259.238281 590.648438 253.820313 588.726563 C 248.261719 586.703125 242.207031 586.34375 236.359375 586.964844 Z M 383.257813 562.574219 C 393.722656 559.503906 404.777344 558.695313 415.621094 559.523438 C 419.945313 560.015625 424.300781 560.246094 428.601563 560.953125 C 434.601563 561.941406 440.554688 563.585938 445.976563 566.390625 C 449.460938 568.246094 452.820313 570.554688 455.210938 573.75 C 455.902344 574.796875 456.800781 575.921875 456.632813 577.265625 C 456.4375 580.460938 455.621094 583.585938 454.589844 586.601563 C 453.5625 589.515625 452.292969 592.367188 450.488281 594.890625 C 446.003906 593.917969 441.425781 593.433594 436.964844 592.351563 C 434.101563 591.71875 431.363281 590.652344 428.605469 589.695313 C 423.050781 587.84375 417.171875 587.050781 411.332031 587.117188 C 406.792969 587.097656 402.222656 587.804688 397.964844 589.398438 C 393.925781 590.921875 390.167969 593.410156 387.5625 596.894531 C 384.019531 601.542969 382.976563 607.890625 384.53125 613.492188 C 385.878906 618.273438 389.164063 622.203125 392.71875 625.546875 C 397.703125 630.101563 403.269531 633.949219 408.707031 637.929688 C 419.621094 645.753906 430.695313 653.390625 440.972656 662.058594 C 448.480469 668.378906 455.230469 676 458.90625 685.214844 C 461.394531 691.394531 462.46875 698.101563 462.335938 704.753906 C 462.457031 716.726563 458.925781 728.921875 451.441406 738.382813 C 444.199219 747.628906 433.769531 753.980469 422.667969 757.519531 C 408.21875 762.183594 392.710938 762.601563 377.746094 760.714844 C 370.34375 759.707031 362.964844 758.0625 356.078125 755.121094 C 352.886719 753.703125 349.761719 752.03125 347.105469 749.742188 C 345.355469 748.214844 343.707031 746.402344 342.925781 744.191406 C 342.789063 740.160156 343.691406 736.152344 344.941406 732.34375 C 345.996094 729.238281 347.4375 726.238281 349.40625 723.597656 C 352.871094 723.425781 356.289063 724.265625 359.449219 725.644531 C 369.605469 730.503906 380.808594 733.171875 392.0625 733.460938 C 395.757813 733.5625 399.402344 732.851563 403.042969 732.335938 C 408.78125 731.398438 414.429688 728.949219 418.449219 724.660156 C 422.21875 720.746094 424.28125 715.390625 424.601563 710.007813 C 425.035156 704.667969 423.585938 699.246094 420.65625 694.777344 C 417.65625 690.164063 413.523438 686.425781 409.171875 683.117188 C 398.273438 675.128906 387.253906 667.292969 376.6875 658.867188 C 373.640625 656.484375 370.800781 653.855469 367.882813 651.324219 C 358.792969 643.769531 351.128906 633.964844 347.878906 622.457031 C 346.164063 616.484375 345.816406 610.1875 346.394531 604.023438 C 347.335938 593.859375 351.625 583.925781 358.863281 576.660156 C 365.484375 569.804688 374.179688 565.246094 383.257813 562.574219 Z M 641.765625 569.347656 C 654.554688 563.71875 668.351563 560.425781 682.28125 559.425781 C 685.972656 559.113281 689.691406 559.28125 693.398438 559.234375 C 700.394531 559.457031 707.511719 559.746094 714.21875 561.957031 C 719.699219 563.683594 724.84375 566.652344 728.789063 570.867188 C 732.808594 575.050781 735.523438 580.316406 737.359375 585.78125 C 739.765625 593.070313 740.730469 600.742188 741.128906 608.382813 C 741.480469 615.722656 741.253906 623.070313 741.324219 630.414063 C 741.402344 658.25 740.679688 686.070313 740.507813 713.898438 C 740.5625 717.582031 740.210938 721.285156 740.785156 724.953125 C 741.308594 728.519531 742.292969 732.382813 745.136719 734.839844 C 746.984375 736.460938 749.59375 736.738281 751.945313 736.332031 C 751.640625 741.378906 751.53125 746.433594 751.609375 751.488281 C 748.039063 756.128906 742.433594 758.726563 736.851563 760.03125 C 733.300781 760.765625 729.578125 761.355469 725.984375 760.515625 C 721.566406 759.558594 717.539063 757.332031 713.914063 754.691406 C 710.667969 752.285156 707.675781 749.496094 705.265625 746.25 C 701.625 749.859375 697.707031 753.296875 693.1875 755.757813 C 686.972656 758.832031 680.054688 760.171875 673.1875 760.648438 C 665.675781 761.105469 658.042969 761.257813 650.671875 759.554688 C 639.664063 757.195313 629.355469 751.066406 622.65625 741.9375 C 615.234375 731.980469 612.328125 719.304688 612.429688 707.046875 C 612.257813 694.304688 615.4375 681.261719 622.859375 670.765625 C 629.269531 661.550781 638.578125 654.660156 648.707031 650.011719 C 655.96875 646.675781 663.671875 644.359375 671.515625 642.871094 C 677.964844 641.632813 684.523438 640.929688 691.101563 641.011719 C 696.253906 640.957031 701.449219 641.136719 706.515625 642.222656 C 706.46875 632.84375 706.601563 623.464844 706.421875 614.09375 C 706.28125 610.460938 706.070313 606.804688 705.257813 603.25 C 704.65625 600.660156 703.726563 598.089844 702.070313 595.980469 C 700.410156 593.828125 698.019531 592.316406 695.445313 591.515625 C 691.898438 590.378906 688.136719 590.277344 684.460938 590.414063 C 678.105469 590.714844 671.820313 591.914063 665.679688 593.535156 C 658.375 595.480469 651.234375 598.011719 644.25 600.894531 C 640.878906 602.390625 637.386719 603.761719 633.699219 604.195313 C 633.109375 604.210938 632.496094 604.347656 631.945313 604.152344 C 630.535156 602.621094 629.597656 600.71875 628.785156 598.820313 C 627.179688 594.964844 626.40625 590.835938 625.644531 586.75 C 625.335938 584.085938 625.3125 581.242188 626.40625 578.75 C 630.859375 574.664063 636.308594 571.847656 641.765625 569.347656 Z M 681.296875 666.707031 C 674.582031 668.109375 667.882813 670.261719 662.195313 674.195313 C 657.535156 677.371094 653.742188 681.847656 651.546875 687.054688 C 648.585938 693.929688 648.089844 701.605469 648.699219 708.988281 C 649.234375 715.027344 650.765625 721.328125 654.867188 725.988281 C 658.382813 730.050781 663.710938 732.054688 668.953125 732.539063 C 676.324219 733.082031 683.796875 731.816406 690.65625 729.09375 C 695.484375 727.144531 700.167969 724.539063 703.773438 720.730469 C 704.867188 719.710938 704.90625 718.125 705.226563 716.765625 C 705.984375 712.921875 706.320313 709.007813 706.398438 705.09375 C 706.617188 691.941406 706.460938 678.789063 706.515625 665.636719 C 702.265625 665.035156 697.957031 665.191406 693.6875 665.339844 C 689.542969 665.601563 685.363281 665.792969 681.296875 666.707031 Z M 524.800781 782.695313 C 528.421875 780.980469 532.554688 781.066406 536.476563 780.996094 C 537.796875 784.328125 537.773438 787.972656 537.910156 791.503906 C 537.914063 809.332031 537.910156 827.160156 537.914063 844.988281 C 537.898438 854.453125 537.972656 863.914063 537.773438 873.378906 C 537.726563 879.894531 537.542969 886.410156 537.582031 892.929688 C 537.46875 895.707031 537.390625 898.785156 539.027344 901.1875 C 539.816406 902.378906 541.382813 902.714844 542.726563 902.429688 C 542.527344 904.722656 542.550781 907.027344 542.558594 909.332031 C 540.386719 912.203125 536.675781 913.28125 533.238281 913.535156 C 531.210938 913.722656 529.21875 913.054688 527.472656 912.078125 C 525.238281 910.835938 523.308594 909.105469 521.648438 907.171875 C 519.871094 908.878906 517.957031 910.523438 515.664063 911.492188 C 509.566406 914.285156 502.5625 914.15625 496.101563 912.902344 C 490.40625 911.773438 484.898438 909.136719 480.902344 904.855469 C 475.882813 899.578125 473.339844 892.46875 472.09375 885.410156 C 470.847656 877.980469 470.664063 870.378906 471.375 862.890625 C 472.40625 852.621094 475.71875 842.273438 482.453125 834.285156 C 486.496094 829.484375 491.878906 825.789063 497.886719 823.921875 C 503.824219 822.089844 510.273438 822.019531 516.304688 823.441406 C 518.296875 823.933594 520.226563 824.683594 522.019531 825.695313 C 521.945313 812.808594 522.222656 799.914063 521.667969 787.035156 C 521.390625 785.046875 523.214844 783.535156 524.800781 782.695313 Z M 507.015625 835.167969 C 502.242188 835.96875 498.015625 838.882813 495.171875 842.746094 C 491.46875 847.757813 489.75 853.933594 488.933594 860.03125 C 488.054688 867.289063 488.140625 874.6875 489.382813 881.898438 C 490.390625 887.304688 492.332031 892.925781 496.621094 896.617188 C 500.980469 900.390625 507.234375 901.015625 512.699219 899.851563 C 515.808594 899.144531 518.964844 897.832031 521.113281 895.390625 C 521.925781 894.078125 521.804688 892.441406 521.917969 890.964844 C 522.128906 882.601563 521.960938 874.230469 522.015625 865.867188 C 521.992188 856.726563 522.054688 847.585938 521.984375 838.445313 C 520.535156 836.980469 518.53125 836.160156 516.574219 835.609375 C 513.460938 834.851563 510.179688 834.628906 507.015625 835.167969 Z M 147.457031 789.128906 C 149.96875 788.992188 152.488281 788.867188 155.003906 788.933594 C 155.667969 789.527344 155.8125 790.546875 156.128906 791.367188 C 157.1875 795.449219 156.882813 799.710938 156.9375 803.894531 C 156.9375 814.007813 156.9375 824.128906 156.9375 834.242188 C 156.972656 842.507813 156.851563 850.773438 157.019531 859.035156 C 157.246094 867.117188 157.898438 875.277344 160.277344 883.046875 C 161.703125 887.648438 163.757813 892.253906 167.320313 895.617188 C 169.816406 898.09375 173.132813 899.65625 176.570313 900.308594 C 179.972656 900.96875 183.460938 900.773438 186.898438 900.574219 C 191.851563 900.21875 196.953125 899.382813 201.25 896.746094 C 204.574219 880.265625 205.066406 863.367188 204.953125 846.601563 C 205.179688 837.808594 204.898438 829.007813 205.121094 820.210938 C 205.113281 814.558594 205.125 808.90625 205.117188 803.257813 C 205.128906 799.109375 205.511719 794.886719 207.011719 790.992188 C 208.941406 789.402344 211.554688 789.144531 213.960938 789.023438 C 216.347656 788.96875 218.734375 788.851563 221.121094 788.914063 C 220.636719 806.621094 220.6875 824.339844 220.691406 842.058594 C 220.667969 850.757813 220.824219 859.464844 220.347656 868.15625 C 219.738281 879.757813 218.507813 891.402344 215.679688 902.6875 C 212.683594 906.441406 208.355469 908.902344 203.921875 910.589844 C 196.847656 913.195313 189.25 913.957031 181.761719 914.101563 C 174.769531 914.203125 167.59375 913.445313 161.167969 910.519531 C 156.246094 908.308594 152 904.660156 149.03125 900.15625 C 145.800781 895.332031 143.933594 889.738281 142.707031 884.105469 C 141.105469 876.839844 140.707031 869.390625 140.40625 861.976563 C 140.199219 854.140625 140.355469 846.296875 140.304688 838.457031 C 140.320313 822.703125 140.359375 806.949219 139.929688 791.199219 C 142.03125 789.480469 144.875 789.363281 147.457031 789.128906 Z M 262.929688 823.125 C 270.238281 821.753906 278.078125 822.433594 284.757813 825.839844 C 285.449219 826.148438 286.214844 826.839844 286.988281 826.335938 C 287.988281 825.710938 289.183594 825.949219 290.296875 825.867188 C 295.785156 825.652344 301.261719 825.296875 306.746094 825 C 307.960938 827.90625 308.210938 831.242188 307.34375 834.28125 C 306.847656 836.003906 305.539063 837.691406 303.664063 837.9375 C 300.585938 838.117188 297.507813 837.828125 294.457031 837.476563 C 297.617188 841.921875 299.242188 847.359375 299.359375 852.800781 C 299.53125 859.667969 298.296875 866.8125 294.484375 872.648438 C 291.21875 877.757813 285.957031 881.414063 280.167969 883.109375 C 273.804688 884.964844 266.976563 885.074219 260.503906 883.714844 C 259.144531 884.949219 257.882813 886.285156 256.574219 887.574219 C 255.585938 888.558594 254.777344 889.847656 254.777344 891.289063 C 254.917969 892.546875 256.027344 893.378906 257.070313 893.925781 C 259.78125 895.308594 262.851563 895.785156 265.847656 896.125 C 270.929688 896.503906 276.003906 896.992188 281.082031 897.355469 C 287.535156 897.761719 294.367188 898.546875 299.820313 902.335938 C 304.109375 905.183594 306.765625 910.070313 307.320313 915.136719 C 307.910156 920.785156 306.257813 926.441406 303.703125 931.429688 C 298.53125 941.238281 289.628906 948.800781 279.535156 953.214844 C 272.257813 956.4375 264.3125 957.789063 256.421875 958.371094 C 252.707031 958.554688 248.964844 958.613281 245.273438 958.101563 C 242.101563 957.648438 238.820313 956.867188 236.257813 954.84375 C 234.394531 953.410156 233.308594 951.039063 233.492188 948.695313 C 233.71875 945.539063 235.359375 942.71875 237.117188 940.179688 C 240.917969 934.921875 245.738281 930.511719 250.726563 926.40625 C 254.003906 923.804688 257.308594 921.148438 260.894531 919.019531 C 263.664063 920.4375 264.648438 924.179688 263.339844 926.921875 C 262.753906 928.308594 261.515625 929.242188 260.425781 930.226563 C 257.566406 932.808594 254.722656 935.425781 252.289063 938.421875 C 251.132813 939.9375 249.910156 941.535156 249.5625 943.457031 C 249.304688 944.84375 250.089844 946.304688 251.40625 946.824219 C 253.886719 947.890625 256.675781 947.679688 259.300781 947.441406 C 263.105469 947.015625 266.878906 946.285156 270.554688 945.234375 C 278.167969 942.804688 284.890625 937.628906 289.195313 930.898438 C 291.292969 927.539063 292.808594 923.457031 291.78125 919.480469 C 291.003906 917.070313 289.851563 914.625 287.75 913.109375 C 285.570313 911.527344 282.839844 911.042969 280.226563 910.722656 C 275.105469 910.050781 269.933594 910 264.789063 909.683594 C 260.535156 909.3125 256.316406 908.582031 252.183594 907.53125 C 247.21875 906.195313 242.042969 903.828125 239.292969 899.257813 C 238.101563 897.113281 237.214844 894.167969 238.867188 892.023438 C 240.316406 890.027344 242.246094 888.441406 243.988281 886.714844 C 246.296875 884.515625 248.636719 882.359375 250.953125 880.171875 C 246.519531 877.414063 243.152344 873.113281 241.253906 868.273438 C 238.863281 862.242188 238.445313 855.585938 239.191406 849.191406 C 240.007813 842.523438 242.65625 835.917969 247.46875 831.128906 C 251.585938 826.878906 257.152344 824.226563 262.929688 823.125 Z M 265.359375 833.472656 C 262.671875 833.960938 260.136719 835.402344 258.441406 837.566406 C 256.464844 839.992188 255.476563 843.070313 255.054688 846.136719 C 254.46875 850.546875 254.914063 855.039063 255.824219 859.378906 C 256.839844 863.886719 258.867188 868.503906 262.785156 871.21875 C 265.652344 873.207031 269.285156 873.898438 272.726563 873.609375 C 275.277344 873.386719 277.824219 872.394531 279.648438 870.554688 C 282.152344 868.144531 283.289063 864.683594 283.816406 861.332031 C 284.488281 856.703125 284.210938 851.96875 283.269531 847.402344 C 282.335938 843.164063 280.519531 838.851563 277.019531 836.113281 C 273.78125 833.535156 269.375 832.785156 265.359375 833.472656 Z M 327.242188 826.78125 C 333.085938 824.304688 339.371094 822.867188 345.707031 822.507813 C 349.429688 822.46875 353.183594 822.390625 356.863281 823.054688 C 360.550781 823.734375 364.164063 825.457031 366.566406 828.414063 C 369.640625 832.144531 370.769531 837.03125 371.273438 841.738281 C 371.804688 847.261719 371.53125 852.820313 371.597656 858.367188 C 371.507813 867.0625 371.429688 875.757813 371.269531 884.453125 C 371.335938 888.378906 371.054688 892.300781 371.238281 896.222656 C 371.417969 898.058594 371.765625 900.078125 373.136719 901.433594 C 373.980469 902.265625 375.21875 902.398438 376.351563 902.261719 C 376.261719 904.570313 376.136719 906.878906 376.167969 909.191406 C 373.996094 911.800781 370.574219 913.003906 367.277344 913.3125 C 365.113281 913.566406 362.96875 912.835938 361.105469 911.796875 C 358.890625 910.515625 356.878906 908.84375 355.332031 906.800781 C 353.332031 908.632813 351.296875 910.5625 348.726563 911.558594 C 345.320313 912.960938 341.589844 913.277344 337.941406 913.355469 C 332.046875 913.613281 325.898438 912.074219 321.324219 908.230469 C 317.03125 904.703125 314.550781 899.363281 313.808594 893.929688 C 313.042969 888.246094 313.488281 882.28125 315.78125 876.976563 C 317.882813 872.070313 321.695313 868.007813 326.242188 865.261719 C 332.015625 861.765625 338.703125 860.003906 345.386719 859.414063 C 348.878906 859.269531 352.417969 859.140625 355.863281 859.824219 C 355.804688 854.941406 356.003906 850.054688 355.707031 845.179688 C 355.480469 842.65625 355.027344 839.800781 352.925781 838.125 C 350.996094 836.625 348.402344 836.472656 346.058594 836.550781 C 341.222656 836.789063 336.511719 838.09375 331.964844 839.695313 C 328.71875 840.691406 325.734375 842.671875 322.265625 842.828125 C 320.859375 841.003906 320.199219 838.753906 319.742188 836.53125 C 319.382813 834.796875 318.984375 832.816406 319.859375 831.191406 C 321.992188 829.238281 324.625 827.949219 327.242188 826.78125 Z M 333.046875 876.941406 C 330.210938 880.378906 329.527344 885.046875 329.816406 889.371094 C 330.027344 892.410156 330.738281 895.664063 332.957031 897.90625 C 334.746094 899.746094 337.359375 900.5 339.871094 900.589844 C 343.589844 900.65625 347.320313 899.792969 350.632813 898.109375 C 352.214844 897.253906 353.78125 896.261719 354.910156 894.839844 C 355.796875 892.019531 355.761719 889.019531 355.859375 886.097656 C 355.867188 880.871094 355.855469 875.648438 355.867188 870.421875 C 352.519531 870.078125 349.136719 870.277344 345.808594 870.683594 C 341.113281 871.503906 336.15625 873.113281 333.046875 876.941406 Z M 564.933594 827.777344 C 574.472656 823.128906 585.394531 821.570313 595.890625 822.914063 C 599.234375 823.417969 602.542969 824.6875 605.066406 827 C 608.296875 829.953125 609.890625 834.246094 610.660156 838.464844 C 611.386719 842.441406 611.46875 846.503906 611.449219 850.535156 C 611.488281 864.449219 611.171875 878.347656 611.042969 892.261719 C 611.046875 894.4375 610.90625 896.664063 611.527344 898.785156 C 611.875 900.082031 612.578125 901.421875 613.859375 902.007813 C 614.578125 902.382813 615.410156 902.277344 616.199219 902.28125 C 616.121094 904.574219 615.976563 906.867188 616.03125 909.164063 C 613.898438 911.777344 610.507813 912.976563 607.246094 913.300781 C 605.007813 913.585938 602.785156 912.839844 600.867188 911.746094 C 598.675781 910.476563 596.714844 908.8125 595.171875 906.808594 C 593.152344 908.664063 591.082031 910.601563 588.480469 911.597656 C 585.140625 912.9375 581.511719 913.277344 577.949219 913.347656 C 571.976563 913.636719 565.722656 912.097656 561.097656 908.171875 C 556.875 904.660156 554.40625 899.398438 553.667969 894.015625 C 552.828125 887.949219 553.378906 881.542969 556.085938 875.984375 C 558.472656 871.042969 562.617188 867.097656 567.40625 864.496094 C 572.9375 861.492188 579.167969 859.914063 585.417969 859.402344 C 588.851563 859.269531 592.328125 859.15625 595.71875 859.816406 C 595.652344 854.867188 595.863281 849.90625 595.53125 844.960938 C 595.304688 842.398438 594.746094 839.488281 592.492188 837.914063 C 590.171875 836.378906 587.222656 836.421875 584.558594 836.644531 C 578.222656 837.253906 572.15625 839.390625 566.324219 841.859375 C 565.015625 842.363281 563.640625 842.78125 562.230469 842.804688 C 560.8125 841.394531 560.289063 839.351563 559.796875 837.476563 C 559.363281 835.457031 558.75 833.253906 559.632813 831.273438 C 561.160156 829.789063 563.058594 828.757813 564.933594 827.777344 Z M 579.980469 872.160156 C 577.097656 873.214844 574.347656 874.90625 572.519531 877.417969 C 570.257813 880.429688 569.53125 884.3125 569.621094 888.015625 C 569.667969 891.25 570.191406 894.714844 572.265625 897.320313 C 573.9375 899.425781 576.640625 900.40625 579.265625 900.566406 C 583.082031 900.742188 586.929688 899.871094 590.347656 898.175781 C 591.988281 897.292969 593.65625 896.28125 594.785156 894.777344 C 595.703125 891.742188 595.601563 888.539063 595.714844 885.40625 C 595.71875 880.40625 595.710938 875.410156 595.714844 870.414063 C 590.4375 870.011719 584.988281 870.300781 579.980469 872.160156 Z M 404.9375 831.769531 C 412.492188 825.347656 422.601563 821.910156 432.515625 822.742188 C 438.066406 823.09375 443.972656 824.425781 448.09375 828.414063 C 452.535156 832.601563 454.042969 838.863281 454.71875 844.722656 C 455.542969 852.824219 455.148438 860.984375 455.246094 869.117188 C 455.230469 882.664063 455.179688 896.214844 455.574219 909.761719 C 454.613281 910.433594 453.546875 910.96875 452.386719 911.199219 C 448.4375 912.011719 444.382813 911.730469 440.378906 911.9375 C 438.992188 909.191406 438.855469 906.050781 438.9375 903.039063 C 438.9375 887.820313 438.9375 872.605469 438.9375 857.386719 C 438.929688 853.304688 438.910156 849.160156 437.890625 845.179688 C 437.222656 842.539063 435.878906 839.929688 433.574219 838.367188 C 430.789063 836.472656 427.289063 836.140625 424.011719 836.183594 C 418.011719 836.234375 412.523438 839.550781 408.605469 843.910156 C 408.617188 862.316406 408.609375 880.71875 408.609375 899.125 C 408.597656 901.992188 408.757813 904.957031 407.800781 907.710938 C 407.363281 908.789063 406.875 909.992188 405.8125 910.605469 C 404.445313 911.453125 402.78125 911.5625 401.21875 911.683594 C 398.246094 911.820313 395.269531 911.84375 392.300781 911.863281 C 392.761719 889.582031 392.726563 867.285156 392.707031 844.996094 C 392.691406 840.152344 392.078125 835.289063 390.441406 830.710938 C 392.339844 828.960938 394.769531 827.964844 397.066406 826.851563 C 399.035156 825.785156 401.695313 826.335938 403.140625 828.03125 C 404.066406 829.089844 404.542969 830.4375 404.933594 831.769531 Z M 277.730469 994.144531 C 279.480469 993.246094 281.511719 993.304688 283.425781 993.285156 C 284.308594 996.050781 283.972656 998.992188 284.039063 1001.851563 C 284.042969 1012.613281 284.035156 1023.382813 284.042969 1034.148438 C 283.988281 1038.507813 283.855469 1042.867188 283.890625 1047.230469 C 283.863281 1048.65625 284.578125 1050.589844 286.351563 1050.300781 C 286.160156 1051.351563 286.300781 1052.421875 286.195313 1053.488281 C 285.316406 1054.859375 283.53125 1055.3125 282.003906 1055.480469 C 279.734375 1055.6875 277.828125 1054.101563 276.398438 1052.527344 C 274.382813 1054.695313 271.355469 1055.601563 268.460938 1055.585938 C 265.027344 1055.585938 261.445313 1054.816406 258.679688 1052.683594 C 256.445313 1051 254.949219 1048.511719 254.050781 1045.898438 C 252.960938 1042.636719 252.601563 1039.171875 252.648438 1035.753906 C 252.554688 1030.3125 253.632813 1024.679688 256.660156 1020.078125 C 258.773438 1016.804688 262.046875 1014.214844 265.851563 1013.242188 C 269.367188 1012.339844 273.261719 1012.539063 276.539063 1014.175781 C 276.488281 1008.105469 276.660156 1002.035156 276.386719 995.972656 C 276.34375 995.140625 277.074219 994.515625 277.730469 994.144531 Z M 265.136719 1021.023438 C 262.96875 1023.082031 261.878906 1026.003906 261.328125 1028.886719 C 260.636719 1032.671875 260.652344 1036.574219 261.253906 1040.378906 C 261.742188 1043.171875 262.765625 1046.144531 265.164063 1047.878906 C 267.851563 1049.746094 271.554688 1049.636719 274.421875 1048.230469 C 275.234375 1047.738281 276.335938 1047.226563 276.398438 1046.144531 C 276.609375 1044.761719 276.519531 1043.351563 276.535156 1041.964844 C 276.535156 1034.695313 276.535156 1027.429688 276.535156 1020.164063 C 273.179688 1017.796875 268.066406 1018.0625 265.136719 1021.023438 Z M 328.292969 995.355469 C 329.878906 993.074219 332.972656 993.347656 335.417969 993.285156 C 336.230469 996.621094 335.898438 1000.082031 335.96875 1003.484375 C 335.980469 1017.957031 335.949219 1032.425781 335.988281 1046.898438 C 335.984375 1048.378906 336.5625 1050.472656 338.4375 1050.320313 C 338.320313 1051.371094 338.304688 1052.433594 338.355469 1053.5 C 336.585938 1055.605469 333.164063 1056.132813 330.871094 1054.566406 C 329.207031 1053.625 328.402344 1051.660156 328.464844 1049.8125 C 328.472656 1039.148438 328.464844 1028.484375 328.46875 1017.820313 C 328.425781 1010.328125 328.597656 1002.839844 328.292969 995.355469 Z M 348.488281 994.210938 C 349.871094 993.964844 351.410156 993.917969 352.691406 994.597656 C 353.855469 995.261719 354.03125 996.75 354.074219 997.972656 C 354.058594 999.621094 354.011719 1001.46875 352.890625 1002.800781 C 351.882813 1003.9375 350.222656 1004.050781 348.804688 1003.960938 C 347.679688 1003.890625 346.515625 1003.355469 346.015625 1002.308594 C 345.289063 1000.777344 345.324219 999.003906 345.546875 997.371094 C 345.761719 995.835938 346.953125 994.496094 348.488281 994.210938 Z M 133.0625 997.511719 C 134.785156 997.105469 136.570313 997.125 138.332031 997.097656 C 139.207031 998.769531 139.515625 1000.648438 139.90625 1002.476563 C 142.644531 1014.789063 145.972656 1026.96875 148.421875 1039.347656 C 148.855469 1040.902344 148.867188 1042.59375 149.539063 1044.074219 C 150.660156 1037.597656 151.824219 1031.128906 153.46875 1024.761719 C 155.347656 1016.898438 157.300781 1009.050781 159.214844 1001.195313 C 159.449219 1000.515625 159.277344 999.394531 160.191406 999.230469 C 161.917969 998.765625 163.714844 998.605469 165.5 998.5625 C 166.820313 1000.859375 167.015625 1003.558594 167.734375 1006.066406 C 169.523438 1013.488281 171.355469 1020.90625 173.152344 1028.332031 C 174.367188 1033.875 175.519531 1039.429688 176.640625 1044.996094 C 177.339844 1041.027344 178.246094 1037.097656 179.0625 1033.152344 C 180.261719 1027.007813 182.03125 1021 183.460938 1014.910156 C 184.675781 1009.914063 185.859375 1004.914063 186.957031 999.890625 C 187.214844 998.976563 187.277344 997.929688 187.898438 997.191406 C 190.136719 996.996094 192.410156 997.238281 194.621094 997.636719 C 194.648438 1000.539063 193.5 1003.265625 192.875 1006.066406 C 189.257813 1019.957031 186.148438 1033.980469 182.328125 1047.820313 C 181.765625 1049.636719 181.335938 1051.515625 180.542969 1053.25 C 178.980469 1054.726563 176.582031 1055.617188 174.5 1054.75 C 173.558594 1054.324219 172.566406 1053.847656 171.898438 1053.054688 C 171.40625 1051.632813 171.160156 1050.136719 170.785156 1048.6875 C 169.386719 1042.625 167.8125 1036.605469 166.363281 1030.554688 C 165.027344 1024.597656 163.808594 1018.613281 162.644531 1012.621094 C 161.207031 1019.550781 159.863281 1026.507813 158.105469 1033.367188 C 156.585938 1039.644531 155.046875 1045.914063 153.5625 1052.195313 C 153.417969 1052.578125 153.414063 1053.101563 153.042969 1053.386719 C 151.472656 1054.671875 149.195313 1055.375 147.25 1054.535156 C 146.257813 1054.097656 145.25 1053.554688 144.519531 1052.746094 C 143.65625 1050.511719 143.195313 1048.148438 142.558594 1045.847656 C 140.316406 1037.082031 138.191406 1028.28125 135.972656 1019.507813 C 134.277344 1013.042969 133.128906 1006.445313 131.332031 1000.011719 C 130.808594 998.863281 132.027344 997.769531 133.0625 997.511719 Z M 482.0625 1004.101563 C 483.53125 1003.109375 485.328125 1002.808594 487.0625 1002.683594 C 486.910156 1006.394531 486.855469 1010.113281 486.878906 1013.835938 C 490.582031 1013.835938 494.285156 1013.824219 497.992188 1013.835938 C 497.878906 1015.4375 497.878906 1017.136719 497.164063 1018.621094 C 496.820313 1019.371094 495.917969 1019.492188 495.191406 1019.5625 C 492.429688 1019.757813 489.660156 1019.683594 486.890625 1019.703125 C 486.625 1027.171875 486.65625 1034.65625 486.824219 1042.128906 C 487.015625 1044.082031 487.191406 1046.136719 488.183594 1047.875 C 488.886719 1049.152344 490.40625 1049.792969 491.832031 1049.59375 C 493.746094 1049.335938 495.601563 1048.71875 497.355469 1047.910156 C 497.457031 1049.46875 497.660156 1051.089844 497.28125 1052.636719 C 496.539063 1054.273438 494.625 1054.769531 493.039063 1055.191406 C 490.195313 1055.773438 487.027344 1056.066406 484.371094 1054.65625 C 482.042969 1053.425781 480.679688 1050.949219 480.050781 1048.472656 C 479.046875 1044.863281 479.332031 1041.089844 479.296875 1037.394531 C 479.296875 1031.527344 479.292969 1025.664063 479.296875 1019.796875 C 477.523438 1019.808594 475.71875 1019.671875 474.070313 1018.976563 C 474.136719 1017.902344 473.773438 1016.496094 474.859375 1015.820313 C 476.371094 1014.707031 478.328125 1014.625 480.027344 1013.941406 C 480.171875 1011.535156 480.292969 1009.136719 480.425781 1006.734375 C 480.421875 1005.625 481.203125 1004.699219 482.0625 1004.097656 Z M 604.445313 1004.207031 C 605.90625 1003.097656 607.800781 1002.839844 609.582031 1002.679688 C 609.425781 1006.390625 609.394531 1010.109375 609.410156 1013.828125 C 613.109375 1013.839844 616.8125 1013.828125 620.515625 1013.839844 C 620.433594 1015.410156 620.367188 1017.035156 619.765625 1018.515625 C 619.496094 1019.199219 618.746094 1019.480469 618.066406 1019.523438 C 615.179688 1019.792969 612.273438 1019.6875 609.378906 1019.707031 C 609.25 1023.753906 609.273438 1027.804688 609.171875 1031.855469 C 609.414063 1036.089844 608.964844 1040.367188 609.640625 1044.578125 C 609.871094 1045.890625 610.1875 1047.265625 611.027344 1048.351563 C 611.824219 1049.351563 613.175781 1049.765625 614.425781 1049.597656 C 616.3125 1049.324219 618.144531 1048.722656 619.875 1047.921875 C 620.003906 1049.433594 620.148438 1050.984375 619.851563 1052.5 C 619.195313 1054.203125 617.253906 1054.753906 615.652344 1055.179688 C 613.019531 1055.734375 610.164063 1056.011719 607.605469 1055.011719 C 605.351563 1054.125 603.769531 1052.054688 603 1049.824219 C 601.710938 1046.265625 601.761719 1042.421875 601.75 1038.695313 C 601.75 1032.398438 601.75 1026.101563 601.75 1019.804688 C 600.003906 1019.820313 598.238281 1019.664063 596.617188 1019 C 596.683594 1017.96875 596.292969 1016.644531 597.253906 1015.925781 C 598.761719 1014.71875 600.796875 1014.640625 602.550781 1013.964844 C 602.699219 1011.566406 602.816406 1009.164063 602.957031 1006.773438 C 602.914063 1005.695313 603.652344 1004.828125 604.445313 1004.210938 Z M 205.472656 1015.796875 C 208.574219 1013.308594 212.714844 1012.480469 216.613281 1012.769531 C 219.421875 1012.949219 222.265625 1014 224.222656 1016.089844 C 226.667969 1018.621094 227.628906 1022.210938 227.867188 1025.640625 C 228 1028.511719 228.085938 1031.421875 227.496094 1034.257813 C 224.589844 1035.886719 221.207031 1036.375 217.921875 1036.527344 C 214.054688 1036.707031 210.175781 1036.871094 206.304688 1036.644531 C 206.355469 1039.847656 206.75 1043.28125 208.753906 1045.914063 C 210.214844 1047.859375 212.632813 1048.847656 215.011719 1049.03125 C 218.796875 1049.28125 222.710938 1048.75 226.113281 1046.996094 C 226.3125 1048.625 227.089844 1050.523438 226.023438 1052.007813 C 224.753906 1053.605469 222.789063 1054.484375 220.835938 1054.898438 C 217.320313 1055.679688 213.632813 1055.851563 210.09375 1055.105469 C 206.851563 1054.410156 203.742188 1052.617188 201.890625 1049.8125 C 200 1046.96875 199.210938 1043.546875 198.839844 1040.199219 C 198.398438 1035.78125 198.550781 1031.292969 199.402344 1026.941406 C 200.238281 1022.742188 202.050781 1018.519531 205.472656 1015.796875 Z M 209.628906 1020.957031 C 207.355469 1023.84375 206.695313 1027.621094 206.480469 1031.199219 C 209.417969 1031.175781 212.359375 1031.261719 215.296875 1031.121094 C 216.949219 1031.054688 218.644531 1031.050781 220.234375 1030.523438 C 220.832031 1028.289063 220.671875 1025.925781 220.253906 1023.679688 C 219.828125 1021.5625 218.609375 1019.289063 216.375 1018.707031 C 213.921875 1017.832031 211.164063 1018.957031 209.628906 1020.957031 Z M 298.941406 1015.6875 C 301.839844 1013.421875 305.625 1012.597656 309.246094 1012.726563 C 311.976563 1012.832031 314.785156 1013.59375 316.867188 1015.4375 C 319.5 1017.71875 320.722656 1021.214844 321.089844 1024.597656 C 321.375 1027.816406 321.476563 1031.097656 320.796875 1034.277344 C 317.964844 1035.835938 314.691406 1036.359375 311.5 1036.511719 C 307.535156 1036.722656 303.554688 1036.859375 299.589844 1036.652344 C 299.707031 1039.765625 300.035156 1043.09375 301.910156 1045.707031 C 303.34375 1047.765625 305.839844 1048.839844 308.292969 1049.027344 C 312.082031 1049.28125 316.015625 1048.765625 319.417969 1046.996094 C 319.640625 1048.367188 320.089844 1049.792969 319.800781 1051.183594 C 318.8125 1053.289063 316.476563 1054.34375 314.328125 1054.859375 C 310.636719 1055.699219 306.746094 1055.882813 303.046875 1055.019531 C 299.777344 1054.253906 296.691406 1052.320313 294.9375 1049.40625 C 292.941406 1046.09375 292.25 1042.183594 292 1038.378906 C 291.839844 1034.660156 291.9375 1030.910156 292.660156 1027.253906 C 293.484375 1022.898438 295.332031 1018.453125 298.941406 1015.6875 Z M 303.234375 1020.621094 C 300.722656 1023.527344 300.042969 1027.484375 299.773438 1031.199219 C 302.820313 1031.183594 305.863281 1031.257813 308.90625 1031.113281 C 310.476563 1031.019531 312.125 1031.089844 313.597656 1030.4375 C 314.171875 1028.097656 313.996094 1025.644531 313.484375 1023.320313 C 313.023438 1021.324219 311.800781 1019.277344 309.710938 1018.710938 C 307.402344 1017.890625 304.789063 1018.804688 303.234375 1020.621094 Z M 402.550781 1015.292969 C 405.75 1013.070313 409.820313 1012.421875 413.640625 1012.832031 C 416.441406 1013.113281 419.210938 1014.351563 421.03125 1016.542969 C 423.300781 1019.234375 424.152344 1022.828125 424.296875 1026.277344 C 424.386719 1028.953125 424.46875 1031.667969 423.855469 1034.296875 C 421.191406 1035.714844 418.171875 1036.3125 415.1875 1036.472656 C 411.019531 1036.714844 406.832031 1036.863281 402.667969 1036.65625 C 402.796875 1039.835938 403.121094 1043.261719 405.117188 1045.886719 C 406.617188 1047.898438 409.128906 1048.894531 411.582031 1049.046875 C 415.308594 1049.253906 419.167969 1048.742188 422.503906 1046.980469 C 422.726563 1048.375 423.164063 1049.828125 422.847656 1051.242188 C 421.800781 1053.386719 419.382813 1054.433594 417.167969 1054.910156 C 413.4375 1055.730469 409.5 1055.878906 405.777344 1054.933594 C 402.636719 1054.121094 399.707031 1052.203125 398.011719 1049.398438 C 396.210938 1046.441406 395.488281 1042.964844 395.167969 1039.558594 C 394.808594 1035.144531 394.984375 1030.65625 395.933594 1026.320313 C 396.867188 1022.078125 398.882813 1017.820313 402.550781 1015.292969 Z M 405.710938 1021.371094 C 403.683594 1024.207031 403.082031 1027.78125 402.871094 1031.191406 C 405.789063 1031.191406 408.710938 1031.253906 411.632813 1031.125 C 413.300781 1031.058594 415.003906 1031.050781 416.613281 1030.539063 C 417.1875 1028.625 417.054688 1026.597656 416.816406 1024.648438 C 416.5625 1022.929688 416.035156 1021.144531 414.78125 1019.882813 C 413.699219 1018.800781 412.121094 1018.382813 410.628906 1018.40625 C 408.632813 1018.554688 406.832031 1019.746094 405.710938 1021.371094 Z M 533.722656 1012.785156 C 534.863281 1012.21875 536.359375 1012.640625 537.09375 1013.675781 C 537.664063 1014.402344 537.886719 1015.324219 538.109375 1016.21875 C 538.875 1019.414063 539.003906 1022.742188 538.753906 1026.011719 C 538.5 1030.574219 538.25 1035.140625 538.003906 1039.707031 C 538.019531 1041.753906 538.136719 1043.867188 538.902344 1045.796875 C 539.414063 1047.121094 540.484375 1048.246094 541.867188 1048.65625 C 545.035156 1049.492188 548.640625 1048.957031 551.222656 1046.863281 C 551.566406 1046.492188 552.152344 1046.179688 552.089844 1045.601563 C 552.113281 1036.347656 552.089844 1027.09375 552.097656 1017.84375 C 552.136719 1016.742188 552.28125 1015.582031 552.90625 1014.652344 C 553.382813 1013.9375 554.296875 1013.789063 555.097656 1013.71875 C 556.644531 1013.613281 558.199219 1013.570313 559.761719 1013.585938 C 559.632813 1022.285156 559.558594 1030.980469 559.597656 1039.679688 C 559.667969 1043.710938 559.21875 1047.890625 560.691406 1051.75 C 559.472656 1052.570313 558.195313 1053.367188 556.769531 1053.769531 C 555.214844 1053.980469 554.109375 1052.621094 553.804688 1051.253906 C 548.957031 1055.402344 541.726563 1056.785156 535.855469 1054.058594 C 533.433594 1052.933594 531.824219 1050.566406 531.160156 1048.039063 C 530.335938 1044.890625 530.214844 1041.589844 530.433594 1038.359375 C 530.667969 1033.253906 530.9375 1028.15625 531.148438 1023.050781 C 531.273438 1020.304688 530.765625 1017.585938 529.957031 1014.972656 C 531.113281 1014.089844 532.386719 1013.363281 533.722656 1012.785156 Z M 575.570313 1013.496094 C 578.976563 1012.417969 582.632813 1012.605469 586.113281 1013.226563 C 588.050781 1013.683594 590.238281 1014.410156 591.289063 1016.242188 C 591.359375 1017.695313 590.769531 1019.113281 590.027344 1020.34375 C 588.523438 1020.058594 586.996094 1019.863281 585.566406 1019.316406 C 583.097656 1018.480469 580.167969 1018.304688 577.863281 1019.691406 C 576.054688 1020.769531 575.351563 1023.316406 576.484375 1025.125 C 577.664063 1026.996094 579.621094 1028.164063 581.355469 1029.472656 C 584.210938 1031.566406 587.25 1033.488281 589.703125 1036.078125 C 594.070313 1040.605469 593.296875 1048.878906 588.238281 1052.582031 C 585.675781 1054.542969 582.425781 1055.382813 579.246094 1055.554688 C 576.359375 1055.679688 573.421875 1055.394531 570.679688 1054.449219 C 569.367188 1053.929688 567.953125 1053.269531 567.242188 1051.984375 C 567.136719 1050.328125 567.734375 1048.695313 568.660156 1047.347656 C 570.234375 1047.484375 571.59375 1048.335938 573.085938 1048.777344 C 575.484375 1049.511719 578.082031 1049.820313 580.539063 1049.160156 C 582.445313 1048.75 584.085938 1047.207031 584.402344 1045.253906 C 584.875 1043.046875 583.664063 1040.902344 581.976563 1039.570313 C 579.359375 1037.5 576.554688 1035.675781 573.992188 1033.539063 C 572.355469 1032.140625 570.648438 1030.75 569.511719 1028.898438 C 567.542969 1025.882813 567.378906 1021.828125 568.988281 1018.628906 C 570.300781 1016.054688 572.839844 1014.292969 575.570313 1013.496094 Z M 444.4375 1013.441406 C 446.363281 1012.824219 448.507813 1012.855469 450.394531 1013.613281 C 451.039063 1013.917969 451.773438 1014.4375 451.816406 1015.226563 C 451.90625 1017.007813 451.351563 1018.761719 450.546875 1020.339844 C 448.535156 1020.667969 446.558594 1019.746094 444.550781 1020.160156 C 442.542969 1020.363281 440.722656 1021.371094 439.265625 1022.738281 C 439.253906 1032.085938 439.277344 1041.441406 439.253906 1050.792969 C 439.195313 1052.054688 439.101563 1053.867188 437.632813 1054.292969 C 435.660156 1054.898438 433.5625 1054.609375 431.535156 1054.679688 C 431.722656 1046.308594 431.753906 1037.933594 431.765625 1029.558594 C 431.671875 1025.214844 432.304688 1020.71875 430.664063 1016.570313 C 432.035156 1015.703125 433.460938 1014.574219 435.148438 1014.5625 C 436.519531 1014.5625 437.238281 1015.902344 437.597656 1017.042969 C 439.585938 1015.367188 441.921875 1014.113281 444.4375 1013.441406 Z M 517.648438 1013.359375 C 519.433594 1012.824219 521.394531 1012.902344 523.144531 1013.546875 C 523.96875 1013.839844 524.851563 1014.535156 524.789063 1015.515625 C 524.738281 1017.21875 524.234375 1018.882813 523.429688 1020.382813 C 521.460938 1020.597656 519.535156 1019.796875 517.574219 1020.144531 C 515.511719 1020.359375 513.59375 1021.351563 512.144531 1022.816406 C 512.160156 1032.132813 512.132813 1041.453125 512.15625 1050.773438 C 512.132813 1051.894531 512.09375 1053.320313 511.09375 1054.054688 C 509.035156 1055.003906 506.679688 1054.582031 504.484375 1054.675781 C 504.703125 1046.207031 504.589844 1037.722656 504.730469 1029.25 C 504.652344 1025 505.160156 1020.617188 503.601563 1016.554688 C 504.90625 1015.734375 506.246094 1014.746094 507.808594 1014.554688 C 509.296875 1014.398438 510.125 1015.820313 510.558594 1017.027344 C 512.605469 1015.289063 515.046875 1014.023438 517.648438 1013.359375 Z M 361.210938 1014.054688 C 362.996094 1013.292969 364.992188 1013.363281 366.894531 1013.335938 C 368.035156 1014.710938 368.34375 1016.519531 368.855469 1018.1875 C 369.671875 1021.070313 370.480469 1023.960938 371.347656 1026.835938 C 372.984375 1033.066406 374.175781 1039.40625 375.863281 1045.628906 C 377.660156 1039.234375 378.902344 1032.699219 380.683594 1026.300781 C 381.785156 1022.175781 382.980469 1018.070313 384.042969 1013.933594 C 386.179688 1013.199219 388.492188 1013.742188 390.679688 1013.992188 C 391.035156 1016.117188 390.113281 1018.121094 389.511719 1020.105469 C 386.199219 1031.003906 382.949219 1041.925781 379.484375 1052.78125 C 379.101563 1054.242188 377.328125 1054.429688 376.101563 1054.804688 C 374.234375 1055.328125 371.507813 1054.566406 371.195313 1052.378906 C 369.15625 1044.894531 366.828125 1037.5 364.476563 1030.113281 C 362.902344 1025.421875 361.371094 1020.71875 359.957031 1015.984375 C 359.59375 1015.09375 360.496094 1014.375 361.210938 1014.054688 Z M 345.644531 1015.570313 C 347.308594 1013.339844 350.441406 1013.679688 352.910156 1013.585938 C 353.285156 1014.730469 353.511719 1015.9375 353.5 1017.15625 C 353.5 1027.386719 353.5 1037.617188 353.5 1047.847656 C 353.484375 1049.414063 353.628906 1051.039063 353.089844 1052.546875 C 352.800781 1053.359375 352.328125 1054.324219 351.359375 1054.4375 C 349.507813 1054.730469 347.617188 1054.671875 345.753906 1054.679688 C 345.863281 1044.46875 345.835938 1034.25 345.835938 1024.035156 C 345.855469 1021.210938 345.800781 1018.382813 345.644531 1015.570313 Z M 345.644531 1015.570313 "/>
</g>
</g>
</svg>
